#!OML:ASF E:/inclinewalkrobotboard/Project1/Captureday1/Session1/subject1.ASF
:FULLY-SPECIFIED
:DEGREES
26
root 0 0 0 9.521084529424545 49.09618454591035 3.79630332598653
lowerback -7.250084735408404 -4.378489875828917 -5.636159005469748
upperback -9.780766315099921 -5.283905425736327 8.110102050049731
thorax -5.5282752437446785 -1.7371614232730936 11.852001913048923
lowerneck -2.5147651952877155 -9.356497316094263 -6.892809200115268
upperneck 34.82451882716855 -11.353568127633556 -2.5758002853635853
head 12.39072908095292 -6.057981233772513 -1.1027962125532815
rclavicle 1.458329033809672E-14 1.037412733556395E-15
rhumerus 80.5961180036066 -27.972041973195328 -58.66373938414845
rradius 2.5250474477744937
rwrist 83.89454865525282
rhand 20.64508524805239 -15.270338748536348
rfingers 7.125019999999927
rthumb 45.241034433578 -39.98000379621751
lclavicle 4.539562225494862E-16 -2.1928339157342917E-15
lhumerus 43.669509275571386 45.07058060489522 2.4727670415596847
lradius 15.351350401203643
lwrist -44.56708025164043
lhand -9.794037584070157 27.20755229545582
lfingers 7.12501999999988
lthumb 16.22960525082978 57.666144493532066
rfemur -55.2035197406675 -0.1604114301620001 11.170353827809677
rtibia 34.57082406596654
rfoot -85.54698370173303 3.449318677778521
rtoes 62.446718760408416
lfemur -56.478625897661516 6.415329329290502 -61.75158933566589
ltibia 67.9730135194185
lfoot 17.34585563239239 20.89327194367872
ltoes -21.377025508253617
27
root 0 0 0 9.489998962459733 49.18614640008677 3.8229622690023035
lowerback -7.194027505484255 -4.363628867220486 -5.635944950367878
upperback -9.761168042946679 -5.26112149561429 8.088570624090057
thorax -5.540575588474921 -1.7235024722257422 11.825218663807767
lowerneck -2.5149669461909507 -9.350268428620758 -6.862993485182159
upperneck 34.84952957293867 -11.34077214918867 -2.6272619287577346
head 12.396880895810789 -6.053994015709296 -1.1212438869365962
rclavicle 1.2769729219203169E-14 8.490094186785865E-16
rhumerus 90.69927270088698 -23.89830054757733 -69.456379327583
rradius 2.4611659775682106
rwrist 79.48617509051891
rhand 22.31412562698563 -17.00743148221293
rfingers 7.125019999999902
rthumb 46.814139069441254 -41.39983270592147
lclavicle -3.8857825135779786E-16 -2.5009654004417094E-15
lhumerus 42.909236440922136 45.752332173222094 3.4535061616698073
lradius 14.913330584897455
lwrist -44.896537282047454
lhand -10.134307624960506 27.009825569084807
lfingers 7.125019999999878
lthumb 15.905080616970963 57.54998784932659
rfemur -52.90524942296889 -2.288153854904891 9.062989289466259
rtibia 35.409613495984075
rfoot -85.54032105075102 4.368067024029219
rtoes 62.392332426943156
lfemur -57.30045867630514 6.910423570286551 -61.646241317702305
ltibia 68.27439439381739
lfoot 16.767912996911786 21.184574284621114
ltoes -20.66288867269715
28
root 0 0 0 9.471969402362806 49.20957654905331 3.833823352544348
lowerback -7.158018188007684 -4.353461789574784 -5.631250670840442
upperback -9.749293234323416 -5.245806598167126 8.073936252711707
thorax -5.549446432849171 -1.7147946637900315 11.804485792361973
lowerneck -2.519362373184963 -9.346474374440984 -6.845753733334316
upperneck 34.85816327183536 -11.33392421038601 -2.6535261716928913
head 12.399114893555339 -6.051643036277666 -1.1309037755598779
rclavicle 1.1250635793496718E-14 7.090686822059264E-16
rhumerus 95.51569140156472 -21.594232558015534 -75.60451466940708
rradius 2.4116470305553612
rwrist 76.58905128316117
rhand 23.287682554309168 -17.947625358408537
rfingers 7.12501999999989
rthumb 47.7285135640971 -42.158952542725565
lclavicle -1.1609077245067008E-15 -2.9019393604190596E-15
lhumerus 41.59345635027032 46.17570170902043 4.552813976530011
lradius 14.447238936619254
lwrist -45.1464602882591
lhand -10.331118073766694 26.875669453501576
lfingers 7.125019999999877
lthumb 15.718896411354029 57.47094419719526
rfemur -51.090318077945994 -4.028371233539843 7.384665906549614
rtibia 36.121840930354786
rfoot -85.59326248883714 4.990601984696696
rtoes 62.28501606524253
lfemur -57.90369768976959 7.318257644889265 -61.47956812411026
ltibia 68.51096049841321
lfoot 16.126764402034066 21.394914089285674
ltoes -19.95472006703467
29
root 0 0 0 9.459480292609655 49.19900048783859 3.840833418466241
lowerback -7.135971281703655 -4.347693995211937 -5.62843413432235
upperback -9.742046680550835 -5.23728622844705 8.063977942050638
thorax -5.555082697539707 -1.7099140823031085 11.790778020816177
lowerneck -2.525255882861588 -9.34408410302009 -6.836686790313478
upperneck 34.85847355622812 -11.330440794686908 -2.6643501249361705
head 12.399372536559925 -6.05024703934064 -1.1350493299356164
rclavicle 1.046020262010858E-14 7.149518650000956E-16
rhumerus 97.6037418312701 -20.5091281701605 -78.73441229958154
rradius 2.357215931738466
rwrist 75.25839269533893
rhand 23.703136188732763 -18.350987998727284
rfingers 7.125019999999885
rthumb 48.1170550760294 -42.48684425006722
lclavicle -1.532509353091156E-15 -3.130902431446076E-15
lhumerus 40.06484677420444 46.388745407705905 5.543928861293189
lradius 14.068296641472582
lwrist -45.34265082688746
lhand -10.478496186895276 26.79007774632507
lfingers 7.125019999999878
lthumb 15.58062088915787 57.42558974903289
rfemur -49.7149955097652 -5.394027652064622 6.106546790662463
rtibia 36.65141654743251
rfoot -85.70460466704291 5.422571882988024
rtoes 62.15686512832099
lfemur -58.36286231635485 7.65212649536937 -61.31964466109187
ltibia 68.70260714084912
lfoot 15.623915274630019 21.541710975935256
ltoes -19.381520423270423
30
root 0 0 0 9.44293309963139 49.16819468193658 3.8522290733374067
lowerback -7.116101400639614 -4.344298991432497 -5.629163794274942
upperback -9.73451274258073 -5.232315609711745 8.054113432041525
thorax -5.559237198146407 -1.7066786977102877 11.779516175720424
lowerneck -2.533343671974462 -9.341429846432725 -6.829546051159641
upperneck 34.85627420148772 -11.327242741503591 -2.6698991809750847
head 12.399324405278383 -6.0487548709014005 -1.1372832275633378
rclavicle 1.0084574163807421E-14 8.167584619799552E-16
rhumerus 98.84402465930746 -19.86053799291025 -80.61842778601262
rradius 2.364746709372721
rwrist 74.68655631052329
rhand 23.860026444584456 -18.524830522331342
rfingers 7.125019999999882
rthumb 48.26139311330453 -42.6306432018434
lclavicle -1.6374869371361952E-15 -3.2083040504464698E-15
lhumerus 38.127195727937504 46.488726452001416 6.576004210775004
lradius 13.718056912996502
lwrist -45.558462945201015
lhand -10.660443445567138 26.723952321197796
lfingers 7.125019999999879
lthumb 15.410196463645338 57.401760721680546
rfemur -48.32158124650792 -6.804246776509629 4.814386994777763
rtibia 37.07811814289212
rfoot -85.82864040266286 5.708580083718708
rtoes 62.00808523447854
lfemur -58.7658017319785 8.022839149344076 -61.09829343862468
ltibia 68.94821923789063
lfoot 15.217672508769855 21.60593602814812
ltoes -18.86093708345252
31
root 0 0 0 9.4364582364812 49.14933135865549 3.854391107862593
lowerback -7.1098614617543685 -4.3433934238036755 -5.627962219779157
upperback -9.731887203373176 -5.230953978841396 8.051324614586964
thorax -5.560310204007486 -1.7059081316127724 11.775572703662434
lowerneck -2.5364739190318284 -9.340222873274428 -6.827361712856067
upperneck 34.855586694344154 -11.326060414045582 -2.6701348792647472
head 12.399509633967607 -6.048075112177666 -1.137506592115663
rclavicle 1.0128184745229803E-14 8.800618391602586E-16
rhumerus 99.09272448972034 -19.668366330838225 -80.99818673807309
rradius 2.4403981477676666
rwrist 74.4616020032486
rhand 23.89340155987602 -18.548371974146058
rfingers 7.125019999999882
rthumb 48.291106643401946 -42.645805463829774
lclavicle -1.4506313203359337E-15 -3.2109297219843397E-15
lhumerus 37.15414478423628 46.39953947865746 6.930261566455279
lradius 13.622905717149127
lwrist -45.64408211993805
lhand -10.685393965491214 26.720586562545737
lfingers 7.12501999999988
lthumb 15.387584390804053 57.404379547667936
rfemur -47.744871048256314 -7.414447988276976 4.275277044666865
rtibia 37.28225037113387
rfoot -85.95612914320884 5.891801626692825
rtoes 61.91837050809585
lfemur -58.98441061690059 8.180556538759536 -61.02749171100773
ltibia 69.0416596505698
lfoot 15.105818314827392 21.654860564421064
ltoes -18.645688097014855
32
root 0 0 0 9.430527307098949 49.13374224465781 3.8571852975240404
lowerback -7.105479081323441 -4.343213751551891 -5.627923397512266
upperback -9.7298553576116 -5.230657520223319 8.049310440014194
thorax -5.560888888112435 -1.7056446340554337 11.773252620288076
lowerneck -2.538758463028403 -9.339216729094815 -6.825898683861334
upperneck 34.85507264558175 -11.325077629661852 -2.6698096873198303
head 12.3996669172986 -6.047502614822881 -1.1374803549873416
rclavicle 1.0188215829480383E-14 9.218647731880923E-16
rhumerus 99.21345792815221 -19.547980555396975 -81.1423176856207
rradius 2.5253942892588164
rwrist 74.32243996846603
rhand 23.89902944081379 -18.546677085670098
rfingers 7.125019999999882
rthumb 48.29516821185745 -42.640742629358925
lclavicle -1.3044953438134578E-15 -3.208183731277969E-15
lhumerus 36.53695998457485 46.31223491323411 7.135382945756618
lradius 13.566273342836556
lwrist -45.68510108977664
lhand -10.670441985133596 26.73473058032601
lfingers 7.125019999999881
lthumb 15.402889110484677 57.41720094710894
rfemur -47.32092992619903 -7.865810031639654 3.8824027921754407
rtibia 37.40520306241784
rfoot -86.04131245949684 5.974903426083774
rtoes 61.84534038949742
lfemur -59.1203144761846 8.295444323712925 -60.96983536566856
ltibia 69.11149062162895
lfoot 15.065883188507076 21.6711721646954
ltoes -18.51464928550906
33
root 0 0 0 9.426475473063089 49.12255941212541 3.8586931280530514
lowerback -7.102964702083108 -4.343142436456615 -5.627627288228876
upperback -9.72856805497598 -5.230521792313521 8.048203132709734
thorax -5.561125756829481 -1.7055385631459392 11.771841241084715
lowerneck -2.540131196003867 -9.338473670849151 -6.824973201240446
upperneck 34.85482883993051 -11.324355329910201 -2.6693358649179117
head 12.399802858983225 -6.047067697303817 -1.137375802431926
rclavicle 1.0225155915020597E-14 9.36931191852161E-16
rhumerus 99.25172336222853 -19.47100433253002 -81.17766622070734
rradius 2.5977268467060313
rwrist 74.21441230597627
rhand 23.899122840357517 -18.53851961541195
rfingers 7.125019999999882
rthumb 48.29445740421137 -42.63061876713493
lclavicle -1.2168278150847423E-15 -3.2306729145415373E-15
lhumerus 36.164675731486106 46.23204194102705 7.239208520075735
lradius 13.533229561556837
lwrist -45.69873895814593
lhand -10.627563304804834 26.757074704136862
lfingers 7.125019999999882
lthumb 15.44461192194523 57.43333417955799
rfemur -47.048093012548364 -8.15799574910993 3.6310491449668234
rtibia 37.474014426777444
rfoot -86.09416406673115 6.009322495639118
rtoes 61.79435868517379
lfemur -59.190613797478534 8.367324033215771 -60.9277750837199
ltibia 69.15623908858683
lfoot 15.064386565510834 21.66789868678828
ltoes -18.44888858360803
